<?xml version="1.0" encoding="utf-8"?>
<svg version="1.1" xmlns:xlink="http://www.w3.org/1999/xlink" width="36px" height="36px" xmlns="http://www.w3.org/2000/svg">
  <defs>
    <pattern id="BGPattern" patternUnits="userSpaceOnUse" alignment="0 0" imageRepeat="None" />
    <mask fill="white" id="Clip174">
      <path d="M 26.15625 31.599243856332706  L 24.598557692307693 22.049149338374292  L 31.21875 15.311909262759922  L 22.088942307692307 13.905482041587902  L 18 5.240075614366727  L 13.911057692307692 13.905482041587902  L 4.78125 15.311909262759922  L 11.401442307692308 22.049149338374292  L 9.822115384615383 31.599243856332706  L 18 27.085066162570886  L 26.15625 31.599243856332706  Z M 34.78846153846154 12.907372400756145  C 35.59615384615385 13.043478260869566  36 13.391304347826086  36 13.95085066162571  C 36 14.283553875236294  35.8125 14.64650283553875  35.4375 15.03969754253308  L 27.584134615384617 23.069943289224952  L 29.44471153846154 34.412098298676746  C 29.459134615384617 34.5179584120983  29.466346153846153 34.66918714555765  29.466346153846153 34.86578449905482  C 29.466346153846153 35.6219281663516  29.17067307692308 36  28.579326923076923 36  C 28.305288461538463 36  28.016826923076923 35.90926275992439  27.713942307692307 35.72778827977316  L 18 30.37429111531191  L 8.286057692307692 35.72778827977316  C 7.968750000000001 35.90926275992439  7.680288461538462 36  7.420673076923077 36  C 7.117788461538462 36  6.890625 35.890359168241964  6.739182692307692 35.67107750472589  C 6.587740384615385 35.45179584120983  6.512019230769231 35.183364839319474  6.512019230769231 34.86578449905482  C 6.512019230769231 34.77504725897921  6.526442307692308 34.623818525519845  6.555288461538462 34.412098298676746  L 8.415865384615385 23.069943289224952  L 0.5408653846153846 15.03969754253308  C 0.1802884615384615 14.631379962192817  0 14.268431001890361  0 13.95085066162571  C 0 13.391304347826086  0.4038461538461538 13.043478260869566  1.2115384615384615 12.907372400756145  L 12.072115384615383 11.251417769376179  L 16.939903846153847 0.9300567107750455  C 17.21394230769231 0.3100189035916805  17.567307692307693 0  18 0  C 18.432692307692307 0  18.786057692307693 0.3100189035916805  19.060096153846153 0.9300567107750455  L 23.927884615384617 11.251417769376179  L 34.78846153846154 12.907372400756145  Z " fill-rule="evenodd" />
    </mask>
  </defs>
  <g transform="matrix(1 0 0 1 -263 -1379 )">
    <path d="M 26.15625 31.599243856332706  L 24.598557692307693 22.049149338374292  L 31.21875 15.311909262759922  L 22.088942307692307 13.905482041587902  L 18 5.240075614366727  L 13.911057692307692 13.905482041587902  L 4.78125 15.311909262759922  L 11.401442307692308 22.049149338374292  L 9.822115384615383 31.599243856332706  L 18 27.085066162570886  L 26.15625 31.599243856332706  Z M 34.78846153846154 12.907372400756145  C 35.59615384615385 13.043478260869566  36 13.391304347826086  36 13.95085066162571  C 36 14.283553875236294  35.8125 14.64650283553875  35.4375 15.03969754253308  L 27.584134615384617 23.069943289224952  L 29.44471153846154 34.412098298676746  C 29.459134615384617 34.5179584120983  29.466346153846153 34.66918714555765  29.466346153846153 34.86578449905482  C 29.466346153846153 35.6219281663516  29.17067307692308 36  28.579326923076923 36  C 28.305288461538463 36  28.016826923076923 35.90926275992439  27.713942307692307 35.72778827977316  L 18 30.37429111531191  L 8.286057692307692 35.72778827977316  C 7.968750000000001 35.90926275992439  7.680288461538462 36  7.420673076923077 36  C 7.117788461538462 36  6.890625 35.890359168241964  6.739182692307692 35.67107750472589  C 6.587740384615385 35.45179584120983  6.512019230769231 35.183364839319474  6.512019230769231 34.86578449905482  C 6.512019230769231 34.77504725897921  6.526442307692308 34.623818525519845  6.555288461538462 34.412098298676746  L 8.415865384615385 23.069943289224952  L 0.5408653846153846 15.03969754253308  C 0.1802884615384615 14.631379962192817  0 14.268431001890361  0 13.95085066162571  C 0 13.391304347826086  0.4038461538461538 13.043478260869566  1.2115384615384615 12.907372400756145  L 12.072115384615383 11.251417769376179  L 16.939903846153847 0.9300567107750455  C 17.21394230769231 0.3100189035916805  17.567307692307693 0  18 0  C 18.432692307692307 0  18.786057692307693 0.3100189035916805  19.060096153846153 0.9300567107750455  L 23.927884615384617 11.251417769376179  L 34.78846153846154 12.907372400756145  Z " fill-rule="nonzero" fill="rgba(127, 127, 127, 1)" stroke="none" transform="matrix(1 0 0 1 263 1379 )" class="fill" />
    <path d="M 26.15625 31.599243856332706  L 24.598557692307693 22.049149338374292  L 31.21875 15.311909262759922  L 22.088942307692307 13.905482041587902  L 18 5.240075614366727  L 13.911057692307692 13.905482041587902  L 4.78125 15.311909262759922  L 11.401442307692308 22.049149338374292  L 9.822115384615383 31.599243856332706  L 18 27.085066162570886  L 26.15625 31.599243856332706  Z " stroke-width="0" stroke-dasharray="0" stroke="rgba(255, 255, 255, 0)" fill="none" transform="matrix(1 0 0 1 263 1379 )" class="stroke" mask="url(#Clip174)" />
    <path d="M 34.78846153846154 12.907372400756145  C 35.59615384615385 13.043478260869566  36 13.391304347826086  36 13.95085066162571  C 36 14.283553875236294  35.8125 14.64650283553875  35.4375 15.03969754253308  L 27.584134615384617 23.069943289224952  L 29.44471153846154 34.412098298676746  C 29.459134615384617 34.5179584120983  29.466346153846153 34.66918714555765  29.466346153846153 34.86578449905482  C 29.466346153846153 35.6219281663516  29.17067307692308 36  28.579326923076923 36  C 28.305288461538463 36  28.016826923076923 35.90926275992439  27.713942307692307 35.72778827977316  L 18 30.37429111531191  L 8.286057692307692 35.72778827977316  C 7.968750000000001 35.90926275992439  7.680288461538462 36  7.420673076923077 36  C 7.117788461538462 36  6.890625 35.890359168241964  6.739182692307692 35.67107750472589  C 6.587740384615385 35.45179584120983  6.512019230769231 35.183364839319474  6.512019230769231 34.86578449905482  C 6.512019230769231 34.77504725897921  6.526442307692308 34.623818525519845  6.555288461538462 34.412098298676746  L 8.415865384615385 23.069943289224952  L 0.5408653846153846 15.03969754253308  C 0.1802884615384615 14.631379962192817  0 14.268431001890361  0 13.95085066162571  C 0 13.391304347826086  0.4038461538461538 13.043478260869566  1.2115384615384615 12.907372400756145  L 12.072115384615383 11.251417769376179  L 16.939903846153847 0.9300567107750455  C 17.21394230769231 0.3100189035916805  17.567307692307693 0  18 0  C 18.432692307692307 0  18.786057692307693 0.3100189035916805  19.060096153846153 0.9300567107750455  L 23.927884615384617 11.251417769376179  L 34.78846153846154 12.907372400756145  Z " stroke-width="0" stroke-dasharray="0" stroke="rgba(255, 255, 255, 0)" fill="none" transform="matrix(1 0 0 1 263 1379 )" class="stroke" mask="url(#Clip174)" />
  </g>
</svg>