<?xml version="1.0" encoding="utf-8"?>
<svg version="1.1" xmlns:xlink="http://www.w3.org/1999/xlink" width="477px" height="441px" xmlns="http://www.w3.org/2000/svg">
  <defs>
    <pattern id="BGPattern" patternUnits="userSpaceOnUse" alignment="0 0" imageRepeat="None" />
    <mask fill="white" id="Clip167">
      <path d="M 0 441  L 0 0  L 477 0  L 477 441  L 0 441  Z " fill-rule="evenodd" />
    </mask>
  </defs>
  <g transform="matrix(1 0 0 1 -650 -4735 )">
    <path d="M 0 441  L 0 0  L 477 0  L 477 441  L 0 441  Z " fill-rule="nonzero" fill="rgba(242, 242, 242, 1)" stroke="none" transform="matrix(1 0 0 1 650 4735 )" class="fill" />
    <path d="M 0 441  L 0 0  L 477 0  L 477 441  L 0 441  Z " stroke-width="2" stroke-dasharray="0" stroke="rgba(121, 121, 121, 1)" fill="none" transform="matrix(1 0 0 1 650 4735 )" class="stroke" mask="url(#Clip167)" />
    <path d="M 476.60289367736124 0.36713603413772944  L 0.39710632263876855 440.63286396586227  M 0.39710632263876855 0.36713603413772944  L 476.60289367736124 440.63286396586227  " stroke-width="1" stroke-dasharray="0" stroke="rgba(121, 121, 121, 1)" fill="none" transform="matrix(1 0 0 1 650 4735 )" class="stroke" />
  </g>
</svg>