<?xml version="1.0" encoding="utf-8"?>
<svg version="1.1" xmlns:xlink="http://www.w3.org/1999/xlink" width="124px" height="132px" xmlns="http://www.w3.org/2000/svg">
  <defs>
    <pattern id="BGPattern" patternUnits="userSpaceOnUse" alignment="0 0" imageRepeat="None" />
    <mask fill="white" id="Clip161">
      <path d="M 0 66  C 0 29.039999999999996  27.279999999999998 0  62 0  C 96.72 0  124 29.039999999999996  124 66  C 124 102.96000000000001  96.72 132  62 132  C 27.279999999999998 132  0 102.96000000000001  0 66  Z " fill-rule="evenodd" />
    </mask>
  </defs>
  <g transform="matrix(1 0 0 1 -271 -1779 )">
    <path d="M 0 66  C 0 29.039999999999996  27.279999999999998 0  62 0  C 96.72 0  124 29.039999999999996  124 66  C 124 102.96000000000001  96.72 132  62 132  C 27.279999999999998 132  0 102.96000000000001  0 66  Z " fill-rule="nonzero" fill="rgba(255, 255, 255, 1)" stroke="none" transform="matrix(1 0 0 1 271 1779 )" class="fill" />
    <path d="M 0 66  C 0 29.039999999999996  27.279999999999998 0  62 0  C 96.72 0  124 29.039999999999996  124 66  C 124 102.96000000000001  96.72 132  62 132  C 27.279999999999998 132  0 102.96000000000001  0 66  Z " stroke-width="2" stroke-dasharray="0" stroke="rgba(121, 121, 121, 1)" fill="none" transform="matrix(1 0 0 1 271 1779 )" class="stroke" mask="url(#Clip161)" />
  </g>
</svg>