<?xml version="1.0" encoding="utf-8"?>
<svg version="1.1" xmlns:xlink="http://www.w3.org/1999/xlink" width="475px" height="374px" xmlns="http://www.w3.org/2000/svg">
  <defs>
    <pattern id="BGPattern" patternUnits="userSpaceOnUse" alignment="0 0" imageRepeat="None" />
    <mask fill="white" id="Clip163">
      <path d="M 0 374  L 0 0  L 475 0  L 475 374  L 0 374  Z " fill-rule="evenodd" />
    </mask>
  </defs>
  <g transform="matrix(1 0 0 1 -618 -2193 )">
    <path d="M 0 374  L 0 0  L 475 0  L 475 374  L 0 374  Z " fill-rule="nonzero" fill="rgba(242, 242, 242, 1)" stroke="none" transform="matrix(1 0 0 1 618 2193 )" class="fill" />
    <path d="M 0 374  L 0 0  L 475 0  L 475 374  L 0 374  Z " stroke-width="2" stroke-dasharray="0" stroke="rgba(121, 121, 121, 1)" fill="none" transform="matrix(1 0 0 1 618 2193 )" class="stroke" mask="url(#Clip163)" />
    <path d="M 474.50106802590295 0.3928432806575006  L 0.49893197409709306 373.6071567193425  M 0.49893197409709306 0.3928432806575006  L 474.50106802590295 373.6071567193425  " stroke-width="1" stroke-dasharray="0" stroke="rgba(121, 121, 121, 1)" fill="none" transform="matrix(1 0 0 1 618 2193 )" class="stroke" />
  </g>
</svg>