<?xml version="1.0" encoding="utf-8"?>
<svg version="1.1" xmlns:xlink="http://www.w3.org/1999/xlink" width="475px" height="402px" xmlns="http://www.w3.org/2000/svg">
  <defs>
    <pattern id="BGPattern" patternUnits="userSpaceOnUse" alignment="0 0" imageRepeat="None" />
    <mask fill="white" id="Clip166">
      <path d="M 0 402  L 0 0  L 475 0  L 475 402  L 0 402  Z " fill-rule="evenodd" />
    </mask>
  </defs>
  <g transform="matrix(1 0 0 1 -79 -4101 )">
    <path d="M 0 402  L 0 0  L 475 0  L 475 402  L 0 402  Z " fill-rule="nonzero" fill="rgba(242, 242, 242, 1)" stroke="none" transform="matrix(1 0 0 1 79 4101 )" class="fill" />
    <path d="M 0 402  L 0 0  L 475 0  L 475 402  L 0 402  Z " stroke-width="2" stroke-dasharray="0" stroke="rgba(121, 121, 121, 1)" fill="none" transform="matrix(1 0 0 1 79 4101 )" class="stroke" mask="url(#Clip166)" />
    <path d="M 474.5490304350541 0.3816626633858137  L 0.4509695649459242 401.6183373366142  M 0.4509695649459242 0.3816626633858137  L 474.5490304350541 401.6183373366142  " stroke-width="1" stroke-dasharray="0" stroke="rgba(121, 121, 121, 1)" fill="none" transform="matrix(1 0 0 1 79 4101 )" class="stroke" />
  </g>
</svg>